Coordinates
version=1
nRows=8
nColumns=63
inDegrees=yes

Units are S.I. units (second, meters, Newtons, ...)
If the header above contains a line with 'inDegrees', this indicates whether rotational values are in degrees (yes) or radians (no).

endheader
time	pelvis_tilt	pelvis_list	pelvis_rotation	pelvis_tx	pelvis_ty	pelvis_tz	hip_flexion_r	hip_adduction_r	hip_rotation_r	knee_angle_r	knee_angle_r_beta	ankle_angle_r	subtalar_angle_r	mtp_angle_r	hip_flexion_l	hip_adduction_l	hip_rotation_l	knee_angle_l	knee_angle_l_beta	ankle_angle_l	subtalar_angle_l	mtp_angle_l	L5_S1_Flex_Ext	L5_S1_Lat_Bending	L5_S1_axial_rotation	L4_L5_Flex_Ext	L4_L5_Lat_Bending	L4_L5_axial_rotation	L3_L4_Flex_Ext	L3_L4_Lat_Bending	L3_L4_axial_rotation	L2_L3_Flex_Ext	L2_L3_Lat_Bending	L2_L3_axial_rotation	L1_L2_Flex_Ext	L1_L2_Lat_Bending	L1_L2_axial_rotation	L1_T12_Flex_Ext	L1_T12_Lat_Bending	L1_T12_axial_rotation	Abs_r3	Abs_r2	Abs_r1	Abs_t1	Abs_t2	neck_flexion	neck_bending	neck_rotation	arm_flex_r	arm_add_r	arm_rot_r	elbow_flex_r	pro_sup_r	wrist_flex_r	wrist_dev_r	arm_flex_l	arm_add_l	arm_rot_l	elbow_flex_l	pro_sup_l	wrist_flex_l	wrist_dev_l
      0.00000000	     -2.68280396	     -4.73996872	     75.75042466	      0.24398576	      0.77098969	      0.67593927	     -1.02792017	     -5.13130228	      4.37569780	      7.93818617	      0.13854749	     36.10983226	     16.01637989	      0.00000000	      0.04635999	      4.50879880	    -15.23241186	     10.11713691	      0.17657735	     39.25592446	     -3.50489675	      0.00000000	     -0.03580536	     -0.71669723	      3.76958698	     -0.06649414	     -0.95320732	      4.00518617	     -0.05882463	     -1.74257765	      4.00518617	     -0.04092195	     -1.74257765	      3.29838861	     -0.03324886	     -1.46148900	      3.06278942	     -0.02045918	     -1.11016401	      2.82719024	     -0.25575413	     -8.10742243	     20.96531193	      0.00000000	      0.00000000	     26.07750191	      4.91688461	     -4.46783524	     10.98841185	     -2.19153169	     51.20017497	     43.95209872	     83.17545076	     11.48064248	     17.90246498	     19.70627997	     -8.47610186	     78.23437095	     48.43929529	     79.71478612	     15.23662331	     18.79354372
      0.01666667	     -2.35252926	     -4.97474672	     77.47111557	      0.24159875	      0.77062063	      0.67542656	     -1.23066703	     -4.79011398	      2.16775675	      7.97916151	      0.13926264	     35.63812850	     15.97740966	      0.00000000	      0.34941883	      4.18417847	    -13.10931299	     10.34683959	      0.18058642	     39.18918468	     -4.19914789	      0.00000000	     -0.00874940	     -0.66518554	      3.43557507	     -0.01624851	     -0.88469677	      3.65029851	     -0.01437439	     -1.61733212	      3.65029851	     -0.00999969	     -1.61733212	      3.00612819	     -0.00812469	     -1.35644635	      2.79140474	     -0.00499941	     -1.03037240	      2.57668130	     -0.06249608	     -7.52471187	     19.10763786	      0.00000000	      0.00000000	     25.93720753	      5.26541548	     -3.34042526	     10.64737566	     -2.31942866	     50.94639378	     44.11539844	     84.69209249	     11.15325693	     16.66959229	     19.42653013	     -8.34245179	     76.17924746	     48.46441701	     81.83736776	     16.82413943	     19.96017201
      0.03333333	     -2.07623541	     -5.05502502	     79.13047112	      0.23952808	      0.77050445	      0.67520946	     -1.55614913	     -4.45931842	      0.66154264	      7.86634469	      0.13729361	     35.31291683	     15.50095168	      0.00000000	      0.53753061	      3.86314544	    -11.80033477	     10.61923094	      0.18534054	     39.27610246	     -4.12367665	      0.00000000	     -0.00948693	     -0.63388087	      3.18391684	     -0.01761818	     -0.84306156	      3.38291164	     -0.01558608	     -1.54121794	      3.38291164	     -0.01084262	     -1.54121794	      2.78592723	     -0.00880957	     -1.29260987	      2.58693243	     -0.00542083	     -0.98188147	      2.38793763	     -0.06776421	     -7.17058717	     17.70799027	      0.00000000	      0.00000000	     25.73348374	      5.15194245	     -3.60914959	     10.33775845	     -2.53440799	     50.72656930	     44.36129658	     84.33792839	     10.34629570	     15.82130534	     19.71607106	     -8.17855283	     76.11759896	     48.36938785	     82.54372629	     17.47174162	     20.15059646
      0.05000000	     -1.71639840	     -5.07218447	     80.40807665	      0.23793671	      0.77057169	      0.67521236	     -1.83006920	     -4.04881725	     -0.35916434	      7.74625266	      0.13519761	     35.14618407	     15.24661904	      0.00000000	      0.65044455	      3.44475101	    -11.02403427	     10.87736407	      0.18984582	     39.37613642	     -4.02145043	      0.00000000	     -0.01562584	     -0.59458230	      3.02350273	     -0.02901875	     -0.79079446	      3.21247165	     -0.02567170	     -1.44566741	      3.21247165	     -0.01785878	     -1.44566741	      2.64556489	     -0.01451016	     -1.21247223	      2.45659597	     -0.00892861	     -0.92100799	      2.26762705	     -0.11161383	     -6.72603393	     16.81581513	      0.00000000	      0.00000000	     25.29759686	      4.80814166	     -4.29981741	     10.04710944	     -2.83089194	     50.46035427	     44.65313811	     83.80511567	      9.61416618	     15.19430744	     20.02978669	     -7.96733269	     76.75025072	     48.27565000	     82.11386417	     17.05643413	     20.29505949
      0.06666667	     -1.43379552	     -5.07470926	     81.66325800	      0.23639296	      0.77063624	      0.67544690	     -2.04834637	     -3.69418192	     -1.32056252	      7.59736832	      0.13259909	     35.16624005	     15.04880762	      0.00000000	      0.82705022	      3.09138571	    -10.32569356	     11.22376806	      0.19589171	     39.48657283	     -3.98678887	      0.00000000	     -0.02634428	     -0.56698763	      2.89898212	     -0.04892397	     -0.75409355	      3.08016851	     -0.04328102	     -1.37857372	      3.08016851	     -0.03010888	     -1.37857372	      2.53660936	     -0.02446330	     -1.15620117	      2.35542298	     -0.01505312	     -0.87826384	      2.17423659	     -0.18817459	     -6.41387745	     16.12326888	      0.00000000	      0.00000000	     24.83535360	      4.32683640	     -5.46476307	      9.88439908	     -3.15699422	     50.23832624	     44.95021459	     83.46518267	      9.33715982	     14.88584014	     20.47627668	     -7.72951502	     77.95689071	     48.16518860	     81.47251728	     16.42018442	     20.06224626
      0.08333333	     -1.27176296	     -5.04686634	     82.69569461	      0.23512795	      0.77087246	      0.67576634	     -2.22668693	     -3.44375700	     -1.61676657	      7.43327542	      0.12973513	     35.22048780	     14.38807661	      0.00000000	      0.96056851	      2.95771211	     -9.03775651	     11.45946832	      0.20000545	     39.22334572	     -5.12454878	      0.00000000	     -0.03816157	     -0.55458550	      2.82674885	     -0.07086985	     -0.73759871	      3.00342066	     -0.06269564	     -1.34841918	      3.00342066	     -0.04361486	     -1.34841918	      2.47340525	     -0.03543683	     -1.13091075	      2.29673344	     -0.02180552	     -0.85905294	      2.12006164	     -0.27258428	     -6.27358207	     15.72152909	      0.00000000	      0.00000000	     24.26597759	      3.99859597	     -6.69465350	      9.52355331	     -3.32451727	     49.27100841	     45.14810077	     83.82315690	      9.32385222	     14.39346041	     21.09377050	     -7.50595844	     80.04695066	     47.88515219	     80.23988066	     14.90943399	     18.74130161
      0.10000000	     -1.07920954	     -5.01237958	     83.25821389	      0.23448225	      0.77106095	      0.67605413	     -2.30083837	     -3.17325725	     -1.43296340	      7.35588129	      0.12838435	     35.36602941	     13.74622908	      0.00000000	      1.04755158	      2.69061795	     -9.07464609	     11.72937654	      0.20471624	     39.23642201	     -4.94506972	      0.00000000	     -0.04992705	     -0.53687242	      2.80149900	     -0.09271953	     -0.71404032	      2.97659269	     -0.08202516	     -1.30535160	      2.97659269	     -0.05706163	     -1.30535160	      2.45131162	     -0.04636226	     -1.09479024	      2.27621794	     -0.02852832	     -0.83161538	      2.10112425	     -0.35662395	     -6.07320818	     15.58109699	      0.00000000	      0.00000000	     23.82262355	      3.65458941	     -7.63092141	      9.44276726	     -3.57265107	     49.27208612	     45.43371302	     82.80689468	      8.68672953	     14.62228913	     21.37739529	     -7.40886932	     81.31027116	     48.03437133	     78.95971480	     13.10475618	     18.64831506
      0.11666667	     -0.80799097	     -5.04356637	     84.26606954	      0.23325792	      0.77123726	      0.67632518	     -2.42666719	     -2.78960713	     -1.68407348	      7.18136713	      0.12533850	     35.43560486	     12.96735284	      0.00000000	      1.27904544	      2.37805057	     -8.16359908	     12.11990666	      0.21153228	     39.11289163	     -5.34600475	      0.00000000	     -0.05885772	     -0.50905552	      2.69254091	     -0.10930467	     -0.67704384	      2.86082471	     -0.09669735	     -1.23771760	      2.86082471	     -0.06726849	     -1.23771760	      2.35597329	     -0.05465528	     -1.03806602	      2.18768949	     -0.03363130	     -0.78852700	      2.01940568	     -0.42041481	     -5.75853788	     14.97510476	      0.00000000	      0.00000000	     23.50958674	      3.12057876	     -8.64581950	      9.18329118	     -3.70537400	     48.47902273	     45.50759705	     82.96024406	      8.95436630	     14.06872865	     21.70140740	     -7.27845223	     82.62278828	     47.94731053	     78.35591687	     11.45166270	     17.15789264
